name Walk6.mot
datacolumns 19
datarows 22
range 1.20100000 1.22200000
endheader

                time	   L_ground_force_vx	   L_ground_force_vy	   L_ground_force_vz	   L_ground_force_px	   L_ground_force_py	   L_ground_force_pz	   R_ground_force_vx	   R_ground_force_vy	   R_ground_force_vz	   R_ground_force_px	   R_ground_force_py	   R_ground_force_pz	   L_ground_torque_x	   L_ground_torque_y	   L_ground_torque_z	   R_ground_torque_x	   R_ground_torque_y	   R_ground_torque_z	
          1.20100000	         -3.40188975	         91.32838848	         -9.99846167	          0.00171446	          0.00000000	          0.00118105	         -0.00000005	          0.00000083	          0.00000000	          0.00000000	          0.00000000	          0.00000000	          0.00000000	          0.09915105	          0.00000000	          0.00000000	         -0.00000001	          0.00000000	
          1.20200000	         -4.04344998	         99.57635403	        -10.87485008	         -0.01473597	          0.00000000	         -0.00279460	         -0.00000006	          0.00000088	          0.00000000	          0.00000000	          0.00000000	          0.00000000	          0.00000000	          0.10481627	          0.00000000	          0.00000000	         -0.00000001	          0.00000000	
          1.20300000	         -4.74074664	        108.02938867	        -11.76751689	         -0.03113040	          0.00000000	         -0.00675890	         -0.00000006	          0.00000093	          0.00000000	          0.00000000	          0.00000000	          0.00000000	          0.00000000	          0.11068412	          0.00000000	          0.00000000	         -0.00000002	          0.00000000	
          1.20400000	         -5.49582434	        116.67467085	        -12.67468314	         -0.04742454	          0.00000000	         -0.01070139	         -0.00000007	          0.00000098	          0.00000000	          0.00000000	          0.00000000	          0.00000000	          0.00000000	          0.11674679	          0.00000000	          0.00000000	         -0.00000002	          0.00000000	
          1.20500000	         -6.31065327	        125.49769165	        -13.59438608	         -0.06357355	          0.00000000	         -0.01461150	         -0.00000007	          0.00000104	          0.00000000	          0.00000000	          0.00000000	          0.00000000	          0.00000000	          0.12299470	          0.00000000	          0.00000000	         -0.00000002	          0.00000000	
          1.20600000	         -7.18711560	        134.48213619	        -14.52446865	         -0.07953229	          0.00000000	         -0.01847860	         -0.00000008	          0.00000109	          0.00000001	          0.00000000	          0.00000000	          0.00000000	          0.00000000	          0.12941648	          0.00000000	          0.00000000	         -0.00000002	          0.00000000	
          1.20700000	         -8.12698416	        143.60983266	        -15.46258099	         -0.09525650	          0.00000000	         -0.02229227	         -0.00000008	          0.00000115	          0.00000001	          0.00000000	          0.00000000	          0.00000000	          0.00000000	          0.13599886	          0.00000000	          0.00000000	         -0.00000002	          0.00000000	
          1.20800000	         -9.13189037	        152.86082846	        -16.40619467	         -0.11070490	          0.00000000	         -0.02604279	         -0.00000009	          0.00000121	          0.00000001	          0.00000000	          0.00000000	          0.00000000	          0.00000000	          0.14272641	          0.00000000	          0.00000000	         -0.00000002	          0.00000000	
          1.20900000	        -10.20328357	        162.21361664	        -17.35261782	         -0.12584038	          0.00000000	         -0.02972145	         -0.00000010	          0.00000126	          0.00000001	          0.00000000	          0.00000000	          0.00000000	          0.00000000	          0.14958106	          0.00000000	          0.00000000	         -0.00000002	          0.00000000	
          1.21000000	        -11.34238291	        171.64552009	        -18.29900322	         -0.14063019	          0.00000000	         -0.03332065	         -0.00000010	          0.00000132	          0.00000001	          0.00000000	          0.00000000	          0.00000000	          0.00000000	          0.15654147	          0.00000000	          0.00000000	         -0.00000002	          0.00000000	
          1.21100000	        -12.55012021	        181.13323436	        -19.24235134	         -0.15504563	          0.00000000	         -0.03683376	         -0.00000011	          0.00000138	          0.00000001	          0.00000000	          0.00000000	          0.00000000	          0.00000000	          0.16358242	          0.00000000	          0.00000000	         -0.00000002	          0.00000000	
          1.21200000	        -13.82707384	        190.65349178	        -20.17951126	         -0.16906180	          0.00000000	         -0.04025514	         -0.00000012	          0.00000143	          0.00000001	          0.00000000	          0.00000000	          0.00000000	          0.00000000	          0.17067465	          0.00000000	          0.00000000	         -0.00000002	          0.00000000	
          1.21300000	        -15.17339743	        200.18376379	        -21.10718268	         -0.18265743	          0.00000000	         -0.04358001	         -0.00000012	          0.00000149	          0.00000001	          0.00000000	          0.00000000	          0.00000000	          0.00000000	          0.17778486	          0.00000000	          0.00000000	         -0.00000002	          0.00000000	
          1.21400000	        -16.58875089	        209.70289650	        -22.02192375	         -0.19581459	          0.00000000	         -0.04680444	         -0.00000013	          0.00000154	          0.00000001	          0.00000000	          0.00000000	          0.00000000	          0.00000000	          0.18487615	          0.00000000	          0.00000000	         -0.00000002	          0.00000000	
          1.21500000	        -18.07224306	        219.19158752	        -22.92016919	         -0.20851852	          0.00000000	         -0.04992526	         -0.00000014	          0.00000160	          0.00000001	          0.00000000	          0.00000000	          0.00000000	          0.00000000	          0.19190835	          0.00000000	          0.00000000	         -0.00000002	          0.00000000	
          1.21600000	        -19.62239418	        228.63265558	        -23.79826096	         -0.22075741	          0.00000000	         -0.05294000	         -0.00000014	          0.00000165	          0.00000001	          0.00000000	          0.00000000	          0.00000000	          0.00000000	          0.19883849	          0.00000000	          0.00000000	         -0.00000002	          0.00000000	
          1.21700000	        -21.23712254	        238.01110686	        -24.65249020	         -0.23252222	          0.00000000	         -0.05584684	         -0.00000015	          0.00000170	          0.00000001	          0.00000000	          0.00000000	          0.00000000	          0.00000000	          0.20562089	          0.00000000	          0.00000000	         -0.00000002	          0.00000000	
          1.21800000	        -22.91375445	        247.31404192	        -25.47914629	         -0.24380644	          0.00000000	         -0.05864460	         -0.00000016	          0.00000174	          0.00000001	          0.00000000	          0.00000000	          0.00000000	          0.00000000	          0.21220717	          0.00000000	          0.00000000	         -0.00000002	          0.00000000	
          1.21900000	        -24.64905313	        256.53046492	        -26.27456734	         -0.25460594	          0.00000000	         -0.06133261	         -0.00000016	          0.00000179	          0.00000001	          0.00000000	          0.00000000	          0.00000000	          0.00000000	          0.21854599	          0.00000000	          0.00000000	         -0.00000002	          0.00000000	
          1.22000000	        -26.43926049	        265.65105453	        -27.03518707	         -0.26491878	          0.00000000	         -0.06391074	         -0.00000017	          0.00000183	          0.00000001	          0.00000000	          0.00000000	          0.00000000	          0.00000000	          0.22458286	          0.00000000	          0.00000000	         -0.00000002	          0.00000000	
          1.22100000	        -28.28014658	        274.66794194	        -27.75757468	         -0.27474501	          0.00000000	         -0.06637932	         -0.00000018	          0.00000187	          0.00000002	          0.00000000	          0.00000000	          0.00000000	          0.00000000	          0.23026012	          0.00000000	          0.00000000	         -0.00000002	          0.00000000	
          1.22200000	        -30.16706319	        283.57452376	        -28.43846649	         -0.28408652	          0.00000000	         -0.06873910	         -0.00000018	          0.00000190	          0.00000002	          0.00000000	          0.00000000	          0.00000000	          0.00000000	          0.23551716	          0.00000000	          0.00000000	         -0.00000002	          0.00000000	
